Coordinates
version=1
nRows=8
nColumns=34
inDegrees=yes

Units are S.I. units (second, meters, Newtons, ...)
If the header above contains a line with 'inDegrees', this indicates whether rotational values are in degrees (yes) or radians (no).

endheader
time	pelvis_tilt	pelvis_list	pelvis_rotation	pelvis_tx	pelvis_ty	pelvis_tz	hip_flexion_r	hip_adduction_r	hip_rotation_r	knee_angle_r	ankle_angle_r	subtalar_angle_r	mtp_angle_r	hip_flexion_l	hip_adduction_l	hip_rotation_l	knee_angle_l	ankle_angle_l	subtalar_angle_l	mtp_angle_l	lumbar_extension	lumbar_bending	lumbar_rotation	arm_flex_r	arm_add_r	arm_rot_r	elbow_flex_r	pro_sup_r	arm_flex_l	arm_add_l	arm_rot_l	elbow_flex_l	pro_sup_l
      0.00000000	      6.49785710	     -6.84558188	    -22.13832850	      0.03872629	      0.96758349	     -0.15446588	      0.97353418	     -0.58559688	     -3.33066806	     20.34199666	     15.61716090	      0.94908728	      0.00000000	     -5.89746936	     -4.02908437	     -9.56810877	     13.08434182	     18.99690586	     -4.07340946	      0.00000000	     -5.43476086	      3.22752829	      4.93311289	      5.94328449	     -6.72986716	      3.18611906	     29.60050300	    110.98619988	      7.48385618	     -4.12414495	      9.53576260	     26.70877748	    105.89644791
      0.01666670	      6.52849185	     -6.86409924	    -22.16916370	      0.03926382	      0.96789426	     -0.15423094	      0.90727493	     -0.57951883	     -3.35647634	     20.36075919	     15.60535406	      0.98710969	      0.00000000	     -5.95759172	     -4.01957598	     -9.60200082	     13.09883988	     18.97199516	     -4.08312004	      0.00000000	     -5.39781384	      3.24840250	      4.93848356	      5.95338571	     -6.58435658	      3.22461934	     29.58166906	    110.99315440	      7.45512585	     -3.95873899	      9.58484111	     26.75111547	    105.91026071
      0.03333330	      6.53370654	     -6.87292270	    -22.18220200	      0.03863879	      0.96797977	     -0.15440434	      0.91952571	     -0.57562631	     -3.37417326	     20.30961677	     15.60183526	      1.01378616	      0.00000000	     -5.95766205	     -4.03253150	     -9.62566676	     13.05729928	     18.95985053	     -4.08642511	      0.00000000	     -5.44312353	      3.23260531	      4.93858991	      5.99324672	     -6.71989456	      3.20280043	     29.55370121	    110.99217788	      7.48049022	     -4.07953238	      9.57282694	     26.75194707	    105.91302032
      0.05000000	      6.53610858	     -6.87312265	    -22.18259854	      0.03868508	      0.96811169	     -0.15439431	      0.91982018	     -0.57310893	     -3.37494879	     20.30909798	     15.60186938	      1.01416090	      0.00000000	     -5.95666305	     -4.03059271	     -9.62621134	     13.05663319	     18.95969414	     -4.08649588	      0.00000000	     -5.44301383	      3.23288108	      4.93893061	      5.99486396	     -6.71951926	      3.20295882	     29.55378474	    110.99223878	      7.48140762	     -4.07911276	      9.57308152	     26.75249178	    105.91314519
      0.06666670	      6.53416233	     -6.86994861	    -22.18329011	      0.03864401	      0.96813710	     -0.15444836	      0.91806596	     -0.57174909	     -3.37574134	     20.30934274	     15.60186699	      1.01433886	      0.00000000	     -5.95844135	     -4.03115414	     -9.62664198	     13.05691038	     18.95958379	     -4.08673188	      0.00000000	     -5.44300644	      3.23308350	      4.93923629	      5.99653793	     -6.71929536	      3.20305629	     29.55386870	    110.99229423	      7.48227536	     -4.07868309	      9.57331101	     26.75291937	    105.91325838
      0.08333330	      7.00121665	     -7.22256193	    -22.44671905	      0.03804610	      0.96898176	     -0.15426821	      0.27025666	     -0.48387396	     -3.75465008	     20.09901140	     15.45289245	      1.61756198	      0.00000000	     -6.78809032	     -4.13747525	    -10.19160488	     12.63601491	     18.66513916	     -4.31818187	      0.00000000	     -6.11456872	      3.41282658	      5.14160936	      6.76312967	     -6.68133444	      3.51835835	     28.40020095	    111.11629656	      7.76951940	     -3.99588341	      9.97355070	     26.40086679	    106.11002416
      0.10000000	      7.00255937	     -7.21926154	    -22.44737763	      0.03809282	      0.96904116	     -0.15439052	      0.27130950	     -0.48414045	     -3.75466148	     20.09725127	     15.45354454	      1.61776041	      0.00000000	     -6.79079904	     -4.14131871	    -10.19094431	     12.63580435	     18.66510298	     -4.31793534	      0.00000000	     -6.11339903	      3.41217734	      5.14202370	      6.76433706	     -6.68287640	      3.51838025	     28.39990598	    111.11639410	      7.76968041	     -3.99795026	      9.97339944	     26.39987254	    106.11011635
      0.11666670	      6.99322180	     -7.21976873	    -22.46986247	      0.03819166	      0.96897924	     -0.15430037	      0.21585215	     -0.47519869	     -3.79299012	     20.00736695	     15.47843642	      1.63285164	      0.00000000	     -6.86001324	     -4.14699465	    -10.20382289	     12.53776081	     18.66326084	     -4.29977555	      0.00000000	     -6.00144263	      3.39105840	      5.15126549	      6.84459020	     -6.75315548	      3.51152918	     28.36318861	    111.11972148	      7.79177822	     -4.04513137	      9.97196184	     26.34425614	    106.11545294
